HIERARCHY
ROOT Hips
{
	OFFSET 0.000000 0.000000 0.000000
	CHANNELS 6 Xposition Yposition Zposition Zrotation Yrotation Xrotation 
	JOINT Spine1
	{
		OFFSET -0.013727 5.003763 -0.053727
		CHANNELS 3 Zrotation Yrotation Xrotation
		JOINT Spine2
		{
			OFFSET -0.000000 7.125302 -0.029825
			CHANNELS 3 Zrotation Yrotation Xrotation
			JOINT Chest
			{
				OFFSET -0.000001 7.550064 -0.815971
				CHANNELS 3 Zrotation Yrotation Xrotation
				JOINT Neck1
				{
					OFFSET -0.181676 26.311296 -0.553349
					CHANNELS 3 Zrotation Yrotation Xrotation
					JOINT Neck2
					{
						OFFSET -0.000003 7.709399 2.302586
						CHANNELS 3 Zrotation Yrotation Xrotation
						JOINT Head
						{
							OFFSET -0.000005 6.128913 1.953709
							CHANNELS 3 Zrotation Yrotation Xrotation
							JOINT HeadEnd
							{
								OFFSET 0.003598 16.065401 -1.835379
								CHANNELS 3 Zrotation Yrotation Xrotation
								End Site
								{
									OFFSET 0.000000 0.000000 0.000000
								}
							}
							JOINT Jaw
							{
								OFFSET 0.002637 0.475592 3.094941
								CHANNELS 3 Zrotation Yrotation Xrotation
								End Site
								{
									OFFSET 0.000000 0.000000 0.000000
								}
							}
							JOINT LeftEye
							{
								OFFSET 3.206381 5.380207 7.586883
								CHANNELS 3 Zrotation Yrotation Xrotation
								End Site
								{
									OFFSET 0.000000 0.000000 0.000000
								}
							}
							JOINT RightEye
							{
								OFFSET -3.222440 5.361867 7.558232
								CHANNELS 3 Zrotation Yrotation Xrotation
								End Site
								{
									OFFSET 0.000000 0.000000 0.000000
								}
							}
						}
					}
				}
				JOINT LeftShoulder
				{
					OFFSET 1.621652 23.237165 5.113413
					CHANNELS 3 Zrotation Yrotation Xrotation
					JOINT LeftArm
					{
						OFFSET 14.919845 0.000000 -5.502326
						CHANNELS 3 Zrotation Yrotation Xrotation
						JOINT LeftForeArm
						{
							OFFSET 28.739309 0.000003 -0.002588
							CHANNELS 3 Zrotation Yrotation Xrotation
							JOINT LeftHand
							{
								OFFSET 27.093979 -0.000003 0.002609
								CHANNELS 3 Zrotation Yrotation Xrotation
								JOINT LeftHandThumb1
								{
									OFFSET 2.276480 -1.392046 3.191413
									CHANNELS 3 Zrotation Yrotation Xrotation
									JOINT LeftHandThumb2
									{
										OFFSET 4.012841 -1.828126 1.641655
										CHANNELS 3 Zrotation Yrotation Xrotation
										JOINT LeftHandThumb3
										{
											OFFSET 2.798516 0.000001 -0.000003
											CHANNELS 3 Zrotation Yrotation Xrotation
											JOINT LeftHandThumbEnd
											{
												OFFSET 3.180791 -0.000001 0.000003
												CHANNELS 3 Zrotation Yrotation Xrotation
												End Site
												{
													OFFSET 0.000000 0.000000 0.000000
												}
											}
										}
									}
								}
								JOINT LeftHandIndex1
								{
									OFFSET 3.247553 -0.531998 2.296169
									CHANNELS 3 Zrotation Yrotation Xrotation
									JOINT LeftHandIndex2
									{
										OFFSET 6.364580 0.012062 0.178600
										CHANNELS 3 Zrotation Yrotation Xrotation
										JOINT LeftHandIndex3
										{
											OFFSET 3.662366 0.000001 -0.000000
											CHANNELS 3 Zrotation Yrotation Xrotation
											JOINT LeftHandIndex4
											{
												OFFSET 2.329243 0.000003 0.000004
												CHANNELS 3 Zrotation Yrotation Xrotation
												JOINT LeftHandIndexEnd
												{
													OFFSET 2.759619 -0.180539 -0.113024
													CHANNELS 3 Zrotation Yrotation Xrotation
													End Site
													{
														OFFSET 0.000000 0.000000 0.000000
													}
												}
											}
										}
									}
								}
								JOINT LeftHandMiddle1
								{
									OFFSET 3.163499 0.240982 1.000332
									CHANNELS 3 Zrotation Yrotation Xrotation
									JOINT LeftHandMiddle2
									{
										OFFSET 6.190778 -0.259276 -1.002549
										CHANNELS 3 Zrotation Yrotation Xrotation
										JOINT LeftHandMiddle3
										{
											OFFSET 4.356523 -0.000006 0.000000
											CHANNELS 3 Zrotation Yrotation Xrotation
											JOINT LeftHandMiddle4
											{
												OFFSET 2.996875 -0.000007 0.000001
												CHANNELS 3 Zrotation Yrotation Xrotation
												JOINT LeftHandMiddleEnd
												{
													OFFSET 2.304294 -0.294571 -0.031740
													CHANNELS 3 Zrotation Yrotation Xrotation
													End Site
													{
														OFFSET 0.000000 0.000000 0.000000
													}
												}
											}
										}
									}
								}
								JOINT LeftHandRing1
								{
									OFFSET 2.882642 -0.053650 -0.322543
									CHANNELS 3 Zrotation Yrotation Xrotation
									JOINT LeftHandRing2
									{
										OFFSET 5.854543 -0.486203 -1.373841
										CHANNELS 3 Zrotation Yrotation Xrotation
										JOINT LeftHandRing3
										{
											OFFSET 4.350581 0.000001 0.000003
											CHANNELS 3 Zrotation Yrotation Xrotation
											JOINT LeftHandRing4
											{
												OFFSET 2.651324 0.000008 0.000003
												CHANNELS 3 Zrotation Yrotation Xrotation
												JOINT LeftHandRingEnd
												{
													OFFSET 1.936111 0.077685 -0.000070
													CHANNELS 3 Zrotation Yrotation Xrotation
													End Site
													{
														OFFSET 0.000000 0.000000 0.000000
													}
												}
											}
										}
									}
								}
								JOINT LeftHandPinky1
								{
									OFFSET 2.865499 -0.310004 -1.600378
									CHANNELS 3 Zrotation Yrotation Xrotation
									JOINT LeftHandPinky2
									{
										OFFSET 5.087853 -1.331142 -1.771231
										CHANNELS 3 Zrotation Yrotation Xrotation
										JOINT LeftHandPinky3
										{
											OFFSET 3.070975 0.000003 0.000001
											CHANNELS 3 Zrotation Yrotation Xrotation
											JOINT LeftHandPinky4
											{
												OFFSET 1.549668 0.000000 0.000001
												CHANNELS 3 Zrotation Yrotation Xrotation
												JOINT LeftHandPinkyEnd
												{
													OFFSET 1.944895 -0.157802 0.057219
													CHANNELS 3 Zrotation Yrotation Xrotation
													End Site
													{
														OFFSET 0.000000 0.000000 0.000000
													}
												}
											}
										}
									}
								}
							}
						}
					}
				}
				JOINT RightShoulder
				{
					OFFSET -1.380118 23.180309 5.214158
					CHANNELS 3 Zrotation Yrotation Xrotation
					JOINT RightArm
					{
						OFFSET -15.037197 0.000012 -5.545604
						CHANNELS 3 Zrotation Yrotation Xrotation
						JOINT RightForeArm
						{
							OFFSET -28.736639 0.000003 -0.002597
							CHANNELS 3 Zrotation Yrotation Xrotation
							JOINT RightHand
							{
								OFFSET -27.133617 -0.000000 0.002613
								CHANNELS 3 Zrotation Yrotation Xrotation
								JOINT RightHandThumb1
								{
									OFFSET -2.274036 -1.383990 3.163128
									CHANNELS 3 Zrotation Yrotation Xrotation
									JOINT RightHandThumb2
									{
										OFFSET -4.011428 -1.827468 1.640914
										CHANNELS 3 Zrotation Yrotation Xrotation
										JOINT RightHandThumb3
										{
											OFFSET -2.794934 -0.000003 -0.000003
											CHANNELS 3 Zrotation Yrotation Xrotation
											JOINT RightHandThumbEnd
											{
												OFFSET -3.183855 0.000003 -0.000000
												CHANNELS 3 Zrotation Yrotation Xrotation
												End Site
												{
													OFFSET 0.000000 0.000000 0.000000
												}
											}
										}
									}
								}
								JOINT RightHandIndex1
								{
									OFFSET -3.253269 -0.520060 2.282866
									CHANNELS 3 Zrotation Yrotation Xrotation
									JOINT RightHandIndex2
									{
										OFFSET -6.341918 0.012473 0.178265
										CHANNELS 3 Zrotation Yrotation Xrotation
										JOINT RightHandIndex3
										{
											OFFSET -3.654875 -0.000009 -0.000001
											CHANNELS 3 Zrotation Yrotation Xrotation
											JOINT RightHandIndex4
											{
												OFFSET -2.327586 0.000000 0.000000
												CHANNELS 3 Zrotation Yrotation Xrotation
												JOINT RightHandIndexEnd
												{
													OFFSET -2.761789 -0.180657 -0.113078
													CHANNELS 3 Zrotation Yrotation Xrotation
													End Site
													{
														OFFSET 0.000000 0.000000 0.000000
													}
												}
											}
										}
									}
								}
								JOINT RightHandMiddle1
								{
									OFFSET -3.168106 0.246593 1.001030
									CHANNELS 3 Zrotation Yrotation Xrotation
									JOINT RightHandMiddle2
									{
										OFFSET -6.180830 -0.258836 -1.000896
										CHANNELS 3 Zrotation Yrotation Xrotation
										JOINT RightHandMiddle3
										{
											OFFSET -4.348905 -0.000000 -0.000001
											CHANNELS 3 Zrotation Yrotation Xrotation
											JOINT RightHandMiddle4
											{
												OFFSET -3.000243 -0.000003 -0.000003
												CHANNELS 3 Zrotation Yrotation Xrotation
												JOINT RightHandMiddleEnd
												{
													OFFSET -2.302518 -0.294371 -0.031706
													CHANNELS 3 Zrotation Yrotation Xrotation
													End Site
													{
														OFFSET 0.000000 0.000000 0.000000
													}
												}
											}
										}
									}
								}
								JOINT RightHandRing1
								{
									OFFSET -2.885693 -0.067952 -0.308858
									CHANNELS 3 Zrotation Yrotation Xrotation
									JOINT RightHandRing2
									{
										OFFSET -5.854197 -0.486132 -1.373732
										CHANNELS 3 Zrotation Yrotation Xrotation
										JOINT RightHandRing3
										{
											OFFSET -4.338814 -0.000003 -0.000000
											CHANNELS 3 Zrotation Yrotation Xrotation
											JOINT RightHandRing4
											{
												OFFSET -2.654906 -0.000004 0.000003
												CHANNELS 3 Zrotation Yrotation Xrotation
												JOINT RightHandRingEnd
												{
													OFFSET -1.933570 0.077523 -0.000052
													CHANNELS 3 Zrotation Yrotation Xrotation
													End Site
													{
														OFFSET 0.000000 0.000000 0.000000
													}
												}
											}
										}
									}
								}
								JOINT RightHandPinky1
								{
									OFFSET -2.866429 -0.342798 -1.584145
									CHANNELS 3 Zrotation Yrotation Xrotation
									JOINT RightHandPinky2
									{
										OFFSET -5.091370 -1.332054 -1.772385
										CHANNELS 3 Zrotation Yrotation Xrotation
										JOINT RightHandPinky3
										{
											OFFSET -3.062666 -0.000007 0.000000
											CHANNELS 3 Zrotation Yrotation Xrotation
											JOINT RightHandPinky4
											{
												OFFSET -1.546526 0.000005 -0.000003
												CHANNELS 3 Zrotation Yrotation Xrotation
												JOINT RightHandPinkyEnd
												{
													OFFSET -1.945122 -0.157722 0.057211
													CHANNELS 3 Zrotation Yrotation Xrotation
													End Site
													{
														OFFSET 0.000000 0.000000 0.000000
													}
												}
											}
										}
									}
								}
							}
						}
					}
				}
			}
		}
	}
	JOINT LeftLeg
	{
		OFFSET 10.043214 -8.434526 2.595655
		CHANNELS 3 Zrotation Yrotation Xrotation
		JOINT LeftShin
		{
			OFFSET -0.000001 -43.221752 -0.802913
			CHANNELS 3 Zrotation Yrotation Xrotation
			JOINT LeftFoot
			{
				OFFSET 0.000001 -42.155094 -3.481523
				CHANNELS 3 Zrotation Yrotation Xrotation
				JOINT LeftToeBase
				{
					OFFSET 0.000000 -5.059475 13.231529
					CHANNELS 3 Zrotation Yrotation Xrotation
					JOINT LeftToeEnd
					{
						OFFSET -0.009607 -1.647616 6.513017
						CHANNELS 3 Zrotation Yrotation Xrotation
						End Site
						{
							OFFSET 0.000000 0.000000 0.000000
						}
					}
				}
			}
		}
	}
	JOINT RightLeg
	{
		OFFSET -10.047277 -8.295259 2.620317
		CHANNELS 3 Zrotation Yrotation Xrotation
		JOINT RightShin
		{
			OFFSET 0.000001 -43.362209 -0.805555
			CHANNELS 3 Zrotation Yrotation Xrotation
			JOINT RightFoot
			{
				OFFSET 0.000002 -42.117393 -3.478399
				CHANNELS 3 Zrotation Yrotation Xrotation
				JOINT RightToeBase
				{
					OFFSET -0.000000 -5.079609 13.284195
					CHANNELS 3 Zrotation Yrotation Xrotation
					JOINT RightToeEnd
					{
						OFFSET 0.009532 -1.634383 6.460591
						CHANNELS 3 Zrotation Yrotation Xrotation
						End Site
						{
							OFFSET 0.000000 0.000000 0.000000
						}
					}
				}
			}
		}
	}
}
MOTION
Frames: 4
Frame Time: 0.033333
-27.650202 41.545509 -115.893707 6.859190 12.915604 12.867159 -3.122936 0.248468 17.581570 -2.866315 -3.260789 5.869507 -7.235068 -6.708107 37.394421 10.703341 1.749712 7.196620 1.038293 4.987267 -2.850125 -2.511175 5.472634 15.408006 0.000077 -0.000023 0.000006 0.094632 0.056250 -0.148805 1.256344 -3.636179 -10.700165 -1.080894 3.750318 -10.680840 13.108029 -32.317825 6.492793 20.548759 -16.949631 -29.563711 0.012235 -28.733816 -0.388015 3.377977 -10.153875 29.691002 -5.882101 9.861279 0.702589 -10.936855 -0.360575 7.156198 -0.000004 8.774810 -0.000002 -17.119841 17.713474 5.273718 -1.844031 2.498502 -2.507277 -10.163589 4.678941 4.621104 -20.975994 -0.000002 0.000003 -21.226250 2.451692 -3.593994 0.000001 -0.000006 -0.000000 -1.362679 2.240798 -0.746324 -21.334887 0.584909 3.008320 -13.821195 -0.000002 0.000002 -23.887125 -0.249077 -0.839482 -59.908138 2.603884 -2.194928 -0.294026 1.679686 0.833254 -14.218190 0.093214 1.300579 -34.212006 -0.287562 0.967168 -20.033178 0.964537 1.212839 -0.000001 0.000000 0.000001 -3.440384 0.788234 0.501655 -15.928167 -3.167305 2.999704 -6.338815 -0.000001 0.000002 -18.123411 3.648177 -4.905660 -0.000005 -0.000000 -0.000002 -1.278255 3.046638 16.022816 66.035454 37.343506 16.959370 0.115817 42.836620 -0.395737 -50.639240 28.229925 25.164509 2.243539 -5.255033 -3.180155 14.282871 -0.826592 6.952495 -0.000002 -12.690591 0.000000 15.082579 -18.655512 2.600534 1.665665 -1.955920 -2.878297 4.727794 -4.170583 4.993918 11.020508 0.000003 -0.000001 12.109031 -3.735709 -2.866780 0.000000 -0.000000 -0.000000 1.291985 -1.928547 -1.498087 14.800113 0.567469 3.865602 14.242553 -1.341734 -6.660649 19.631935 0.143927 -0.648244 50.842918 -0.138770 -5.320211 0.353028 -1.511148 -0.031940 20.222765 3.684308 2.316627 18.787245 0.000005 -0.000000 10.751609 -0.479867 1.397904 0.000000 0.000000 0.000000 3.273806 0.305947 -0.580110 21.486788 11.830362 2.266130 8.162916 0.000002 -0.000000 18.399050 -3.798978 -4.940567 0.000003 0.000000 -0.000001 25.100912 16.959427 -98.324501 -1.474641 1.258051 136.177795 5.791883 -20.969007 -22.068449 2.138448 -1.705375 -6.833358 -0.000002 0.000000 0.000004 -31.971527 -15.237272 -40.134350 0.962501 0.355166 151.963333 15.501194 31.984095 -37.181576 -2.269981 0.903939 -37.250072 -0.000000 0.000001 -0.000003 
-27.552864 41.936008 -118.213181 6.927054 13.145310 10.172297 -3.165287 -0.064856 17.792669 -2.643592 -3.069537 5.998657 -5.989744 -6.628975 37.957108 10.617640 1.694246 7.485205 0.713115 4.457970 -2.838211 -3.000517 5.143784 15.355014 0.000077 -0.000022 0.000006 0.137414 0.065459 -0.143739 1.267630 -3.646190 -10.774538 -1.001796 3.771737 -10.797724 14.478228 -31.243988 5.752671 19.610945 -18.588718 -31.212826 0.079377 -26.902067 -0.556655 3.584626 -9.697203 23.780416 -5.882100 9.861279 0.702591 -10.936859 -0.360574 7.156197 0.000001 8.774814 -0.000000 -17.448162 17.423019 5.184811 -1.844032 2.498501 -2.507276 -10.163590 4.678940 4.621105 -20.975996 -0.000005 0.000003 -21.226254 2.451693 -3.593992 0.000000 -0.000006 -0.000000 -1.362680 2.240797 -0.746323 -21.334890 0.584909 3.008321 -13.821195 -0.000002 0.000003 -23.887131 -0.249077 -0.839482 -59.920856 2.375624 -2.034683 -0.294024 1.679686 0.833255 -14.218195 0.093214 1.300580 -34.212006 -0.287562 0.967173 -20.033180 0.964537 1.212842 -0.000001 0.000000 -0.000001 -3.440384 0.788233 0.501655 -15.928167 -3.167306 2.999704 -6.338817 -0.000001 0.000000 -18.123413 3.648176 -4.905662 -0.000005 -0.000000 -0.000001 -0.735142 5.296641 15.477016 59.783337 37.067635 12.757871 0.241002 40.036198 -0.129324 -47.484081 27.594717 25.602337 2.243542 -5.255033 -3.180155 14.282875 -0.826594 6.952495 -0.000001 -12.690592 0.000000 15.374207 -18.524260 2.804107 1.665663 -1.955920 -2.878297 4.727794 -4.170583 4.993918 11.020511 0.000002 -0.000002 12.109031 -3.735711 -2.866780 -0.000000 -0.000000 0.000000 1.291982 -1.928548 -1.498088 14.800109 0.567467 3.865602 14.242551 -1.341735 -6.660651 19.631937 0.143927 -0.648245 50.940372 -0.227735 -5.224389 0.353030 -1.511149 -0.031940 20.222767 3.684306 2.316628 18.787245 0.000004 -0.000001 10.751609 -0.479868 1.397903 -0.000000 -0.000000 0.000000 3.273803 0.305947 -0.580110 21.486782 11.830362 2.266130 8.162915 0.000001 -0.000000 18.399050 -3.798980 -4.940568 0.000004 -0.000000 -0.000001 22.203724 17.432123 -99.224083 -1.221048 1.262725 135.114731 5.285090 -22.603266 -19.305618 2.062594 -1.740665 -6.036659 -0.000001 0.000000 0.000003 -34.038414 -15.194585 -43.539181 0.894068 0.190516 152.935822 16.573513 31.380255 -31.715456 -2.206099 0.956598 -36.707893 0.000000 0.000000 -0.000003 
-27.256144 42.964546 -120.436646 7.373669 13.188225 8.914995 -3.063803 -0.345780 18.019688 -2.293269 -2.850740 6.280272 -4.647157 -6.592943 38.227367 10.380941 1.679581 6.750630 0.359690 3.773362 -2.907461 -3.163815 4.577418 15.099565 0.000077 -0.000022 0.000006 0.210577 0.075610 -0.143559 1.286348 -3.624831 -10.818131 -0.878998 3.765994 -10.874299 15.890242 -29.946180 4.955730 18.291573 -20.209131 -32.830524 0.526015 -25.855696 -0.757934 4.893932 -9.395033 14.795623 -5.882103 9.861277 0.702591 -10.936861 -0.360575 7.156197 0.000003 8.774814 -0.000000 -17.719793 17.203459 5.029543 -1.844032 2.498502 -2.507275 -10.163589 4.678939 4.621104 -20.975996 -0.000005 0.000003 -21.226255 2.451693 -3.593992 0.000000 -0.000005 -0.000000 -1.362682 2.240795 -0.746322 -21.334890 0.584907 3.008320 -13.821197 -0.000004 0.000004 -23.887129 -0.249079 -0.839479 -59.727814 2.015437 -1.929708 -0.294025 1.679686 0.833256 -14.218190 0.093213 1.300580 -34.212006 -0.287567 0.967171 -20.033176 0.964534 1.212843 -0.000001 -0.000000 0.000000 -3.440383 0.788232 0.501655 -15.928165 -3.167307 2.999703 -6.338817 -0.000001 0.000001 -18.123415 3.648175 -4.905660 -0.000004 0.000001 -0.000002 0.293040 8.215772 14.806008 52.177509 36.150620 8.079906 0.104396 36.805004 -0.128801 -44.011963 26.427307 26.734909 2.243539 -5.255033 -3.180155 14.282877 -0.826592 6.952496 -0.000002 -12.690590 -0.000001 15.620630 -18.217003 2.722704 1.665664 -1.955920 -2.878296 4.727794 -4.170582 4.993918 11.020513 0.000003 -0.000001 12.109034 -3.735709 -2.866779 0.000000 0.000001 0.000000 1.291983 -1.928547 -1.498088 14.800113 0.567469 3.865602 14.242553 -1.341733 -6.660649 19.631939 0.143926 -0.648243 50.499775 -0.254995 -5.317874 0.353027 -1.511149 -0.031940 20.222773 3.684309 2.316628 18.787245 0.000006 -0.000001 10.751612 -0.479867 1.397904 0.000000 0.000000 0.000000 3.273804 0.305947 -0.580110 21.486795 11.830364 2.266131 8.162917 0.000002 -0.000000 18.399054 -3.798978 -4.940567 0.000004 0.000000 -0.000001 18.258455 16.947371 -100.407761 -0.931844 1.027682 133.411011 4.232775 -23.424385 -16.083368 1.925009 -1.794226 -5.764124 0.000000 0.000001 0.000003 -35.992977 -15.953456 -46.237919 0.929161 0.072571 152.366379 17.047138 31.304865 -28.924870 -2.048142 0.972235 -35.224865 -0.000000 0.000001 -0.000003 
-26.661665 44.658123 -122.809448 8.330956 12.667688 9.477956 -2.781104 -0.577295 18.370779 -1.888089 -2.659936 6.612134 -3.383565 -6.375017 38.132801 9.870137 2.026343 4.146495 0.107160 2.774126 -2.972575 -3.382711 3.780324 14.836191 0.000077 -0.000022 0.000006 0.306507 0.072394 -0.155185 1.346441 -3.587112 -10.859206 -0.745763 3.723959 -10.910894 16.780363 -28.847841 4.165920 17.034239 -21.273895 -35.281326 1.187221 -25.347609 -0.998075 6.205644 -9.107344 6.623426 -5.882099 9.861279 0.702589 -10.936858 -0.360575 7.156196 0.000002 8.774815 -0.000001 -17.668652 17.261818 4.985413 -1.844033 2.498503 -2.507276 -10.163591 4.678940 4.621103 -20.975994 -0.000004 0.000001 -21.226250 2.451692 -3.593995 0.000000 -0.000006 -0.000000 -1.362682 2.240797 -0.746323 -21.334887 0.584908 3.008319 -13.821197 -0.000003 0.000001 -23.887129 -0.249079 -0.839482 -59.310291 1.882510 -1.960027 -0.294027 1.679686 0.833255 -14.218194 0.093214 1.300578 -34.212002 -0.287565 0.967168 -20.033180 0.964534 1.212841 -0.000002 -0.000000 -0.000000 -3.440385 0.788233 0.501655 -15.928167 -3.167307 2.999703 -6.338816 -0.000001 0.000001 -18.123411 3.648177 -4.905662 -0.000004 0.000000 -0.000002 1.156260 11.631149 13.891018 43.863777 34.392414 3.009284 0.206362 33.641891 0.110607 -41.323498 25.354170 27.751591 2.243540 -5.255033 -3.180155 14.282878 -0.826593 6.952495 -0.000002 -12.690591 -0.000001 15.840733 -17.878838 2.642764 1.665665 -1.955920 -2.878298 4.727795 -4.170582 4.993918 11.020513 0.000002 -0.000001 12.109032 -3.735708 -2.866780 0.000000 -0.000000 0.000000 1.291983 -1.928548 -1.498088 14.800111 0.567467 3.865602 14.242553 -1.341735 -6.660651 19.631937 0.143927 -0.648245 50.286270 -0.355998 -5.397592 0.353027 -1.511150 -0.031940 20.222767 3.684305 2.316628 18.787247 0.000004 -0.000001 10.751611 -0.479867 1.397903 -0.000000 0.000000 -0.000000 3.273803 0.305947 -0.580110 21.486792 11.830361 2.266130 8.162916 0.000001 -0.000001 18.399050 -3.798978 -4.940568 0.000004 0.000000 -0.000001 13.075649 15.467879 -101.904678 -0.666824 0.712104 130.569122 2.639365 -22.228928 -13.873802 1.844466 -1.823315 -5.350415 -0.000000 -0.000001 0.000003 -37.392666 -16.843513 -49.337399 1.023580 0.066304 150.009308 18.828499 30.332411 -27.504742 -1.920158 1.025794 -31.116983 0.000000 0.000000 -0.000003 
